# xmcd CD database file
#
# Track frame offsets:
#	150
#	10503
#	30868
#	50253
#	69353
#	84143
#	103233
#	116962
#	132043
#	142065
#	162792
#	172255
#	186656
#	204548
#	219294
#	229442
#	243026
#	256034
#	273391
#	285400
#	298597
#	313453
#
# Disc length: 4358 seconds
#
# Revision: 1
# Processed by: cddbd v1.5.2PL0 Copyright (c) Steve Scherf et al.
# Submitted via: CDex 1.70beta2
#
DISCID=3e110416
DTITLE=Peter "Banjo" Meyer - 50 Years On Stage - CD 1 - 1963 -1975
DYEAR=2008
DGENRE=Jazz
TTITLE0=Tiger Rag
TTITLE1=Put 'em Down Blues
TTITLE2=The Chant
TTITLE3=New Wang Wang Blues
TTITLE4=Bye Bye Blues
TTITLE5=Bozo
TTITLE6=Savoy Blues
TTITLE7=Margie
TTITLE8=Chinatown
TTITLE9=Liebestraum
TTITLE10=Hot Stuff Patrol
TTITLE11=Ory's Creole Trombone
TTITLE12=Dans Le Rue d'Antibes
TTITLE13=East 49th Street Blues
TTITLE14=Wettbüro Stomp
TTITLE15=Elephant Stomp
TTITLE16=When Johnny Comes Marching Home
TTITLE17=Together
TTITLE18=Mama Inez
TTITLE19=Decatur Street
TTITLE20=Yes, Yes, Yes
TTITLE21=Blue Guitars
EXTD=YEAR: 2008
EXTT0=
EXTT1=
EXTT2=
EXTT3=
EXTT4=
EXTT5=
EXTT6=
EXTT7=
EXTT8=
EXTT9=
EXTT10=
EXTT11=
EXTT12=
EXTT13=
EXTT14=
EXTT15=
EXTT16=
EXTT17=
EXTT18=
EXTT19=
EXTT20=
EXTT21=
PLAYORDER=
